# xmcd
#
# Track frame offsets: 
#        225
#        12893
#        25334
#        37148
#        49635
#        61821
#        76056
#        87155
#        102367
#        115099
#        140244
#        161550
#        168431
#        181526
#        190915
#        204481
#        217621
#        231572
#
# Disc length: 3260 seconds
#
# Revision: 1
# Processed by: cddbd v1.5.2PL0 Copyright (c) Steve Scherf et al.
# Submitted via: ExactAudioCopy v0.95a4
#
DISCID=e90cb912
DTITLE=Various Artist - Mad About The Boy
DYEAR=1996
DGENRE=Oldies
TTITLE0=Dinah Washington - Mad about the boy
TTITLE1=Sam Cooke - When I fall in love
TTITLE2=Nat King Cole - Love is a many splendoured thing
TTITLE3=Sarah Vaughan - My favourite things
TTITLE4=Aretha Franklin - I never loved a man (the way I love you)
TTITLE5=Jackie Wilson - For once in my life
TTITLE6=Doris Day - I'm in the mood for love
TTITLE7=Nina Simone - Love me or leave me
TTITLE8=Engelbert Humperdinck - Embraceable you
TTITLE9=Elle Fitzgerald and Louis Armstrong - The nearness of you
TTITLE10=Lionel Hampton and Dinah Wahsington - Close to you
TTITLE11=Frank Sinatra - Somebody loves me
TTITLE12=Harry Belafonte - Hallelujah, I love her so
TTITLE13=Peggy Lee - Let there be love
TTITLE14=Marilyn Monroe - I wanna be loved by you
TTITLE15=Billie Holiday - Summertime
TTITLE16=Lena Horne - More than you know
TTITLE17=Marlene Dietrich - Falling in love again
EXTD=Year: 1996
EXTT0=
EXTT1=
EXTT2=
EXTT3=
EXTT4=
EXTT5=
EXTT6=
EXTT7=
EXTT8=
EXTT9=
EXTT10=
EXTT11=
EXTT12=
EXTT13=
EXTT14=
EXTT15=
EXTT16=
EXTT17=
PLAYORDER=
